<mxfile host="app.diagrams.net" modified="2023-05-21T11:20:33.990Z" agent="Mozilla/5.0 (X11; Linux x86_64; rv:108.0) Gecko/20100101 Firefox/108.0" etag="ETv3MO-hpH86Q60gTiYW" version="21.3.2" type="github">
  <diagram name="Page-1" id="55a83fd1-7818-8e21-69c5-c3457e3827bb">
    <mxGraphModel dx="1434" dy="742" grid="1" gridSize="10" guides="1" tooltips="1" connect="1" arrows="1" fold="1" page="1" pageScale="1" pageWidth="1100" pageHeight="850" background="none" math="0" shadow="0">
      <root>
        <mxCell id="0" />
        <mxCell id="1" parent="0" />
        <mxCell id="69ecfefc5c41e42c-18" style="edgeStyle=none;rounded=0;html=1;labelBackgroundColor=none;endArrow=none;strokeWidth=2;fontFamily=Verdana;fontSize=22" parent="1" source="69ecfefc5c41e42c-1" target="69ecfefc5c41e42c-3" edge="1">
          <mxGeometry relative="1" as="geometry" />
        </mxCell>
        <mxCell id="69ecfefc5c41e42c-1" value="" style="image;html=1;labelBackgroundColor=#ffffff;image=img/lib/clip_art/networking/Wireless_Router_128x128.png;rounded=1;shadow=0;comic=0;strokeWidth=2;fontSize=22" parent="1" vertex="1">
          <mxGeometry x="470" y="465" width="80" height="80" as="geometry" />
        </mxCell>
        <mxCell id="69ecfefc5c41e42c-2" value="Internet" style="image;html=1;labelBackgroundColor=#ffffff;image=img/lib/clip_art/networking/Cloud_128x128.png;rounded=1;shadow=0;comic=0;strokeWidth=2;fontSize=22;labelPosition=center;verticalLabelPosition=top;align=center;verticalAlign=bottom;" parent="1" vertex="1">
          <mxGeometry x="470" y="140" width="80" height="80" as="geometry" />
        </mxCell>
        <mxCell id="69ecfefc5c41e42c-19" style="edgeStyle=none;rounded=0;html=1;labelBackgroundColor=none;endArrow=none;strokeWidth=2;fontFamily=Verdana;fontSize=22" parent="1" source="69ecfefc5c41e42c-3" target="69ecfefc5c41e42c-2" edge="1">
          <mxGeometry relative="1" as="geometry" />
        </mxCell>
        <mxCell id="69ecfefc5c41e42c-3" value="Firewall" style="image;html=1;labelBackgroundColor=#ffffff;image=img/lib/clip_art/networking/Firewall_128x128.png;rounded=1;shadow=0;comic=0;strokeWidth=2;fontSize=22;labelPosition=right;verticalLabelPosition=middle;align=left;verticalAlign=middle;" parent="1" vertex="1">
          <mxGeometry x="470" y="290" width="80" height="80" as="geometry" />
        </mxCell>
        <mxCell id="69ecfefc5c41e42c-5" value="&lt;span style=&quot;background-color: rgb(0, 0, 0);&quot;&gt;Frontend 1&lt;/span&gt;" style="image;html=1;labelBackgroundColor=#ffffff;image=img/lib/clip_art/computers/Monitor_Tower_128x128.png;rounded=1;shadow=0;comic=0;strokeWidth=2;fontSize=22" parent="1" vertex="1">
          <mxGeometry x="150" y="640" width="80" height="80" as="geometry" />
        </mxCell>
        <mxCell id="69ecfefc5c41e42c-12" value="" style="html=1;fillColor=#CCCCCC;strokeColor=#6881B3;gradientColor=none;gradientDirection=north;strokeWidth=2;shape=mxgraph.networks.comm_link_edge;html=1;labelBackgroundColor=none;endArrow=none;fontFamily=Verdana;fontSize=22;fontColor=#000000;fontStyle=1" parent="1" source="69ecfefc5c41e42c-5" target="69ecfefc5c41e42c-1" edge="1">
          <mxGeometry width="100" height="100" relative="1" as="geometry">
            <mxPoint x="320" y="481.9565217391305" as="sourcePoint" />
            <mxPoint x="470" y="508.0434782608695" as="targetPoint" />
          </mxGeometry>
        </mxCell>
        <mxCell id="cDpIuXm2N1MPzuHtF6yL-1" value="&lt;span style=&quot;background-color: rgb(0, 0, 0);&quot;&gt;[Frontend 2/3/...]&lt;br&gt;&lt;/span&gt;" style="image;html=1;labelBackgroundColor=#ffffff;image=img/lib/clip_art/computers/Monitor_Tower_128x128.png;rounded=1;shadow=0;comic=0;strokeWidth=2;fontSize=22" vertex="1" parent="1">
          <mxGeometry x="770" y="640" width="80" height="80" as="geometry" />
        </mxCell>
        <mxCell id="cDpIuXm2N1MPzuHtF6yL-2" value="" style="html=1;fillColor=#CCCCCC;strokeColor=#6881B3;gradientColor=none;gradientDirection=north;strokeWidth=2;shape=mxgraph.networks.comm_link_edge;html=1;labelBackgroundColor=none;endArrow=none;fontFamily=Verdana;fontSize=22;fontColor=#000000;fontStyle=1" edge="1" parent="1">
          <mxGeometry width="100" height="100" relative="1" as="geometry">
            <mxPoint x="750" y="666" as="sourcePoint" />
            <mxPoint x="540" y="530" as="targetPoint" />
          </mxGeometry>
        </mxCell>
      </root>
    </mxGraphModel>
  </diagram>
</mxfile>
